<mxfile host="app.diagrams.net" modified="2024-06-19T18:24:00.062Z" agent="Mozilla/5.0 (Windows NT 10.0; Win64; x64) AppleWebKit/537.36 (KHTML, like Gecko) Chrome/126.0.0.0 Safari/537.36" etag="KWY2gyW8P_4DoQF4e_Zt" version="24.5.5" type="device">
  <diagram id="C5RBs43oDa-KdzZeNtuy" name="Page-1">
    <mxGraphModel dx="2977" dy="928" grid="1" gridSize="10" guides="1" tooltips="1" connect="1" arrows="1" fold="1" page="1" pageScale="1" pageWidth="827" pageHeight="1169" math="0" shadow="0">
      <root>
        <mxCell id="WIyWlLk6GJQsqaUBKTNV-0" />
        <mxCell id="WIyWlLk6GJQsqaUBKTNV-1" parent="WIyWlLk6GJQsqaUBKTNV-0" />
        <mxCell id="013hZcBHefSOdsYqLP7i-60" value="" style="edgeStyle=orthogonalEdgeStyle;rounded=0;orthogonalLoop=1;jettySize=auto;html=1;strokeColor=#E07A5F;fontColor=#393C56;fillColor=#F2CC8F;" edge="1" parent="WIyWlLk6GJQsqaUBKTNV-1" source="zkfFHV4jXpPFQw0GAbJ--0">
          <mxGeometry relative="1" as="geometry">
            <mxPoint x="-769.9999999999998" y="132.99999999999977" as="targetPoint" />
            <Array as="points">
              <mxPoint x="-790" y="133" />
            </Array>
          </mxGeometry>
        </mxCell>
        <mxCell id="zkfFHV4jXpPFQw0GAbJ--0" value="AuthenticationService" style="swimlane;fontStyle=2;align=center;verticalAlign=top;childLayout=stackLayout;horizontal=1;startSize=20;horizontalStack=0;resizeParent=1;resizeLast=0;collapsible=1;marginBottom=0;rounded=0;shadow=0;strokeWidth=1;labelBackgroundColor=none;fillColor=#F2CC8F;strokeColor=#E07A5F;fontColor=#393C56;" parent="WIyWlLk6GJQsqaUBKTNV-1" vertex="1">
          <mxGeometry x="-810" y="270" width="160" height="90" as="geometry">
            <mxRectangle x="230" y="140" width="160" height="26" as="alternateBounds" />
          </mxGeometry>
        </mxCell>
        <mxCell id="zkfFHV4jXpPFQw0GAbJ--1" value="UserService" style="text;align=left;verticalAlign=top;spacingLeft=4;spacingRight=4;overflow=hidden;rotatable=0;points=[[0,0.5],[1,0.5]];portConstraint=eastwest;labelBackgroundColor=none;fontColor=#393C56;" parent="zkfFHV4jXpPFQw0GAbJ--0" vertex="1">
          <mxGeometry y="20" width="160" height="26" as="geometry" />
        </mxCell>
        <mxCell id="zkfFHV4jXpPFQw0GAbJ--4" value="" style="line;html=1;strokeWidth=1;align=left;verticalAlign=middle;spacingTop=-1;spacingLeft=3;spacingRight=3;rotatable=0;labelPosition=right;points=[];portConstraint=eastwest;labelBackgroundColor=none;fillColor=#F2CC8F;strokeColor=#E07A5F;fontColor=#393C56;" parent="zkfFHV4jXpPFQw0GAbJ--0" vertex="1">
          <mxGeometry y="46" width="160" height="8" as="geometry" />
        </mxCell>
        <mxCell id="zkfFHV4jXpPFQw0GAbJ--5" value="authenticateUser()&#xa;" style="text;align=left;verticalAlign=top;spacingLeft=4;spacingRight=4;overflow=hidden;rotatable=0;points=[[0,0.5],[1,0.5]];portConstraint=eastwest;labelBackgroundColor=none;fontColor=#393C56;" parent="zkfFHV4jXpPFQw0GAbJ--0" vertex="1">
          <mxGeometry y="54" width="160" height="26" as="geometry" />
        </mxCell>
        <mxCell id="013hZcBHefSOdsYqLP7i-0" value="Client" style="swimlane;fontStyle=0;align=center;verticalAlign=top;childLayout=stackLayout;horizontal=1;startSize=26;horizontalStack=0;resizeParent=1;resizeLast=0;collapsible=1;marginBottom=0;rounded=0;shadow=0;strokeWidth=1;labelBackgroundColor=none;fillColor=#F2CC8F;strokeColor=#E07A5F;fontColor=#393C56;" vertex="1" parent="WIyWlLk6GJQsqaUBKTNV-1">
          <mxGeometry x="560" y="50" width="153" height="164" as="geometry">
            <mxRectangle x="550" y="140" width="160" height="26" as="alternateBounds" />
          </mxGeometry>
        </mxCell>
        <mxCell id="013hZcBHefSOdsYqLP7i-1" value="int clientSocket" style="text;align=left;verticalAlign=top;spacingLeft=4;spacingRight=4;overflow=hidden;rotatable=0;points=[[0,0.5],[1,0.5]];portConstraint=eastwest;labelBackgroundColor=none;fontColor=#393C56;" vertex="1" parent="013hZcBHefSOdsYqLP7i-0">
          <mxGeometry y="26" width="153" height="26" as="geometry" />
        </mxCell>
        <mxCell id="013hZcBHefSOdsYqLP7i-6" value="" style="line;html=1;strokeWidth=1;align=left;verticalAlign=middle;spacingTop=-1;spacingLeft=3;spacingRight=3;rotatable=0;labelPosition=right;points=[];portConstraint=eastwest;labelBackgroundColor=none;fillColor=#F2CC8F;strokeColor=#E07A5F;fontColor=#393C56;" vertex="1" parent="013hZcBHefSOdsYqLP7i-0">
          <mxGeometry y="52" width="153" height="8" as="geometry" />
        </mxCell>
        <mxCell id="013hZcBHefSOdsYqLP7i-250" value="connectToServer()" style="text;align=left;verticalAlign=top;spacingLeft=4;spacingRight=4;overflow=hidden;rotatable=0;points=[[0,0.5],[1,0.5]];portConstraint=eastwest;labelBackgroundColor=none;fontColor=#393C56;" vertex="1" parent="013hZcBHefSOdsYqLP7i-0">
          <mxGeometry y="60" width="153" height="26" as="geometry" />
        </mxCell>
        <mxCell id="013hZcBHefSOdsYqLP7i-7" value="connectToServer()" style="text;align=left;verticalAlign=top;spacingLeft=4;spacingRight=4;overflow=hidden;rotatable=0;points=[[0,0.5],[1,0.5]];portConstraint=eastwest;labelBackgroundColor=none;fontColor=#393C56;" vertex="1" parent="013hZcBHefSOdsYqLP7i-0">
          <mxGeometry y="86" width="153" height="26" as="geometry" />
        </mxCell>
        <mxCell id="013hZcBHefSOdsYqLP7i-8" value="disconnect()" style="text;align=left;verticalAlign=top;spacingLeft=4;spacingRight=4;overflow=hidden;rotatable=0;points=[[0,0.5],[1,0.5]];portConstraint=eastwest;labelBackgroundColor=none;fontColor=#393C56;" vertex="1" parent="013hZcBHefSOdsYqLP7i-0">
          <mxGeometry y="112" width="153" height="26" as="geometry" />
        </mxCell>
        <mxCell id="013hZcBHefSOdsYqLP7i-10" value="getSocket()" style="text;align=left;verticalAlign=top;spacingLeft=4;spacingRight=4;overflow=hidden;rotatable=0;points=[[0,0.5],[1,0.5]];portConstraint=eastwest;labelBackgroundColor=none;fontColor=#393C56;" vertex="1" parent="013hZcBHefSOdsYqLP7i-0">
          <mxGeometry y="138" width="153" height="26" as="geometry" />
        </mxCell>
        <mxCell id="013hZcBHefSOdsYqLP7i-9" value="1" style="resizable=0;align=right;verticalAlign=bottom;labelBackgroundColor=none;fontSize=12;fillColor=#F2CC8F;strokeColor=#E07A5F;fontColor=#393C56;" connectable="0" vertex="1" parent="WIyWlLk6GJQsqaUBKTNV-1">
          <mxGeometry x="290" y="99" as="geometry" />
        </mxCell>
        <mxCell id="013hZcBHefSOdsYqLP7i-11" value="UserInterface" style="swimlane;fontStyle=0;align=center;verticalAlign=top;childLayout=stackLayout;horizontal=1;startSize=26;horizontalStack=0;resizeParent=1;resizeLast=0;collapsible=1;marginBottom=0;rounded=0;shadow=0;strokeWidth=1;labelBackgroundColor=none;fillColor=#ffe6cc;strokeColor=#d79b00;" vertex="1" parent="WIyWlLk6GJQsqaUBKTNV-1">
          <mxGeometry x="280" y="120" width="150" height="162" as="geometry">
            <mxRectangle x="550" y="140" width="160" height="26" as="alternateBounds" />
          </mxGeometry>
        </mxCell>
        <mxCell id="013hZcBHefSOdsYqLP7i-15" value="Client* client" style="text;align=left;verticalAlign=top;spacingLeft=4;spacingRight=4;overflow=hidden;rotatable=0;points=[[0,0.5],[1,0.5]];portConstraint=eastwest;labelBackgroundColor=none;fontColor=#393C56;" vertex="1" parent="013hZcBHefSOdsYqLP7i-11">
          <mxGeometry y="26" width="150" height="24" as="geometry" />
        </mxCell>
        <mxCell id="013hZcBHefSOdsYqLP7i-16" value="RequestHandler*" style="text;align=left;verticalAlign=top;spacingLeft=4;spacingRight=4;overflow=hidden;rotatable=0;points=[[0,0.5],[1,0.5]];portConstraint=eastwest;labelBackgroundColor=none;fontColor=#393C56;" vertex="1" parent="013hZcBHefSOdsYqLP7i-11">
          <mxGeometry y="50" width="150" height="26" as="geometry" />
        </mxCell>
        <mxCell id="013hZcBHefSOdsYqLP7i-13" value="&lt;span style=&quot;color: rgba(0, 0, 0, 0); font-family: monospace; font-size: 0px;&quot;&gt;%3CmxGraphModel%3E%3Croot%3E%3CmxCell%20id%3D%220%22%2F%3E%3CmxCell%20id%3D%221%22%20parent%3D%220%22%2F%3E%3CmxCell%20id%3D%222%22%20value%3D%22%22%20style%3D%22line%3Bhtml%3D1%3BstrokeWidth%3D1%3Balign%3Dleft%3BverticalAlign%3Dmiddle%3BspacingTop%3D-1%3BspacingLeft%3D3%3BspacingRight%3D3%3Brotatable%3D0%3BlabelPosition%3Dright%3Bpoints%3D%5B%5D%3BportConstraint%3Deastwest%3BlabelBackgroundColor%3Dnone%3BfillColor%3D%23F2CC8F%3BstrokeColor%3D%23E07A5F%3BfontColor%3D%23393C56%3B%22%20vertex%3D%221%22%20parent%3D%221%22%3E%3CmxGeometry%20x%3D%22630%22%20y%3D%22248%22%20width%3D%22150%22%20height%3D%228%22%20as%3D%22geometry%22%2F%3E%3C%2FmxCell%3E%3C%2Froot%3E%3C%2FmxGraphModel%3E&lt;/span&gt;" style="line;html=1;strokeWidth=1;align=left;verticalAlign=middle;spacingTop=-1;spacingLeft=3;spacingRight=3;rotatable=0;labelPosition=right;points=[];portConstraint=eastwest;labelBackgroundColor=none;fillColor=#F2CC8F;strokeColor=#E07A5F;fontColor=#393C56;" vertex="1" parent="013hZcBHefSOdsYqLP7i-11">
          <mxGeometry y="76" width="150" height="8" as="geometry" />
        </mxCell>
        <mxCell id="013hZcBHefSOdsYqLP7i-14" value="getAdminInterface" style="text;align=left;verticalAlign=top;spacingLeft=4;spacingRight=4;overflow=hidden;rotatable=0;points=[[0,0.5],[1,0.5]];portConstraint=eastwest;labelBackgroundColor=none;fontColor=#393C56;" vertex="1" parent="013hZcBHefSOdsYqLP7i-11">
          <mxGeometry y="84" width="150" height="26" as="geometry" />
        </mxCell>
        <mxCell id="013hZcBHefSOdsYqLP7i-25" value="getChefInterface" style="text;align=left;verticalAlign=top;spacingLeft=4;spacingRight=4;overflow=hidden;rotatable=0;points=[[0,0.5],[1,0.5]];portConstraint=eastwest;labelBackgroundColor=none;fontColor=#393C56;" vertex="1" parent="013hZcBHefSOdsYqLP7i-11">
          <mxGeometry y="110" width="150" height="26" as="geometry" />
        </mxCell>
        <mxCell id="013hZcBHefSOdsYqLP7i-26" value="getEmployeeInterface" style="text;align=left;verticalAlign=top;spacingLeft=4;spacingRight=4;overflow=hidden;rotatable=0;points=[[0,0.5],[1,0.5]];portConstraint=eastwest;labelBackgroundColor=none;fontColor=#393C56;" vertex="1" parent="013hZcBHefSOdsYqLP7i-11">
          <mxGeometry y="136" width="150" height="26" as="geometry" />
        </mxCell>
        <mxCell id="013hZcBHefSOdsYqLP7i-17" value="RequestHandler" style="swimlane;fontStyle=0;align=center;verticalAlign=top;childLayout=stackLayout;horizontal=1;startSize=26;horizontalStack=0;resizeParent=1;resizeLast=0;collapsible=1;marginBottom=0;rounded=0;shadow=0;strokeWidth=1;labelBackgroundColor=none;fillColor=#F2CC8F;strokeColor=#E07A5F;fontColor=#393C56;" vertex="1" parent="WIyWlLk6GJQsqaUBKTNV-1">
          <mxGeometry x="550" y="260" width="150" height="160" as="geometry">
            <mxRectangle x="550" y="140" width="160" height="26" as="alternateBounds" />
          </mxGeometry>
        </mxCell>
        <mxCell id="013hZcBHefSOdsYqLP7i-18" value="int clientSocket" style="text;align=left;verticalAlign=top;spacingLeft=4;spacingRight=4;overflow=hidden;rotatable=0;points=[[0,0.5],[1,0.5]];portConstraint=eastwest;labelBackgroundColor=none;fontColor=#393C56;" vertex="1" parent="013hZcBHefSOdsYqLP7i-17">
          <mxGeometry y="26" width="150" height="26" as="geometry" />
        </mxCell>
        <mxCell id="013hZcBHefSOdsYqLP7i-23" value="serverAddress" style="text;align=left;verticalAlign=top;spacingLeft=4;spacingRight=4;overflow=hidden;rotatable=0;points=[[0,0.5],[1,0.5]];portConstraint=eastwest;labelBackgroundColor=none;fontColor=#393C56;" vertex="1" parent="013hZcBHefSOdsYqLP7i-17">
          <mxGeometry y="52" width="150" height="26" as="geometry" />
        </mxCell>
        <mxCell id="013hZcBHefSOdsYqLP7i-19" value="" style="line;html=1;strokeWidth=1;align=left;verticalAlign=middle;spacingTop=-1;spacingLeft=3;spacingRight=3;rotatable=0;labelPosition=right;points=[];portConstraint=eastwest;labelBackgroundColor=none;fillColor=#F2CC8F;strokeColor=#E07A5F;fontColor=#393C56;" vertex="1" parent="013hZcBHefSOdsYqLP7i-17">
          <mxGeometry y="78" width="150" height="8" as="geometry" />
        </mxCell>
        <mxCell id="013hZcBHefSOdsYqLP7i-20" value="SendRequest()" style="text;align=left;verticalAlign=top;spacingLeft=4;spacingRight=4;overflow=hidden;rotatable=0;points=[[0,0.5],[1,0.5]];portConstraint=eastwest;labelBackgroundColor=none;fontColor=#393C56;" vertex="1" parent="013hZcBHefSOdsYqLP7i-17">
          <mxGeometry y="86" width="150" height="26" as="geometry" />
        </mxCell>
        <mxCell id="013hZcBHefSOdsYqLP7i-21" value="RecieveResponse()" style="text;align=left;verticalAlign=top;spacingLeft=4;spacingRight=4;overflow=hidden;rotatable=0;points=[[0,0.5],[1,0.5]];portConstraint=eastwest;labelBackgroundColor=none;fontColor=#393C56;" vertex="1" parent="013hZcBHefSOdsYqLP7i-17">
          <mxGeometry y="112" width="150" height="26" as="geometry" />
        </mxCell>
        <mxCell id="013hZcBHefSOdsYqLP7i-22" value="WriteProtocolHeader()" style="text;align=left;verticalAlign=top;spacingLeft=4;spacingRight=4;overflow=hidden;rotatable=0;points=[[0,0.5],[1,0.5]];portConstraint=eastwest;labelBackgroundColor=none;fontColor=#393C56;" vertex="1" parent="013hZcBHefSOdsYqLP7i-17">
          <mxGeometry y="138" width="150" height="22" as="geometry" />
        </mxCell>
        <mxCell id="013hZcBHefSOdsYqLP7i-34" value="Server" style="swimlane;fontStyle=0;align=center;verticalAlign=top;childLayout=stackLayout;horizontal=1;startSize=26;horizontalStack=0;resizeParent=1;resizeLast=0;collapsible=1;marginBottom=0;rounded=0;shadow=0;strokeWidth=1;labelBackgroundColor=none;fillColor=#F2CC8F;strokeColor=#E07A5F;fontColor=#393C56;" vertex="1" parent="WIyWlLk6GJQsqaUBKTNV-1">
          <mxGeometry x="-210" y="50" width="153" height="190" as="geometry">
            <mxRectangle x="550" y="140" width="160" height="26" as="alternateBounds" />
          </mxGeometry>
        </mxCell>
        <mxCell id="013hZcBHefSOdsYqLP7i-40" value="server_fd" style="text;align=left;verticalAlign=top;spacingLeft=4;spacingRight=4;overflow=hidden;rotatable=0;points=[[0,0.5],[1,0.5]];portConstraint=eastwest;labelBackgroundColor=none;fontColor=#393C56;" vertex="1" parent="013hZcBHefSOdsYqLP7i-34">
          <mxGeometry y="26" width="153" height="26" as="geometry" />
        </mxCell>
        <mxCell id="013hZcBHefSOdsYqLP7i-41" value="address" style="text;align=left;verticalAlign=top;spacingLeft=4;spacingRight=4;overflow=hidden;rotatable=0;points=[[0,0.5],[1,0.5]];portConstraint=eastwest;labelBackgroundColor=none;fontColor=#393C56;" vertex="1" parent="013hZcBHefSOdsYqLP7i-34">
          <mxGeometry y="52" width="153" height="26" as="geometry" />
        </mxCell>
        <mxCell id="013hZcBHefSOdsYqLP7i-35" value="ClientSocket" style="text;align=left;verticalAlign=top;spacingLeft=4;spacingRight=4;overflow=hidden;rotatable=0;points=[[0,0.5],[1,0.5]];portConstraint=eastwest;labelBackgroundColor=none;fontColor=#393C56;" vertex="1" parent="013hZcBHefSOdsYqLP7i-34">
          <mxGeometry y="78" width="153" height="26" as="geometry" />
        </mxCell>
        <mxCell id="013hZcBHefSOdsYqLP7i-36" value="" style="line;html=1;strokeWidth=1;align=left;verticalAlign=middle;spacingTop=-1;spacingLeft=3;spacingRight=3;rotatable=0;labelPosition=right;points=[];portConstraint=eastwest;labelBackgroundColor=none;fillColor=#F2CC8F;strokeColor=#E07A5F;fontColor=#393C56;" vertex="1" parent="013hZcBHefSOdsYqLP7i-34">
          <mxGeometry y="104" width="153" height="8" as="geometry" />
        </mxCell>
        <mxCell id="013hZcBHefSOdsYqLP7i-37" value="connectToServer()" style="text;align=left;verticalAlign=top;spacingLeft=4;spacingRight=4;overflow=hidden;rotatable=0;points=[[0,0.5],[1,0.5]];portConstraint=eastwest;labelBackgroundColor=none;fontColor=#393C56;" vertex="1" parent="013hZcBHefSOdsYqLP7i-34">
          <mxGeometry y="112" width="153" height="26" as="geometry" />
        </mxCell>
        <mxCell id="013hZcBHefSOdsYqLP7i-38" value="disconnect()" style="text;align=left;verticalAlign=top;spacingLeft=4;spacingRight=4;overflow=hidden;rotatable=0;points=[[0,0.5],[1,0.5]];portConstraint=eastwest;labelBackgroundColor=none;fontColor=#393C56;" vertex="1" parent="013hZcBHefSOdsYqLP7i-34">
          <mxGeometry y="138" width="153" height="26" as="geometry" />
        </mxCell>
        <mxCell id="013hZcBHefSOdsYqLP7i-39" value="getSocket()" style="text;align=left;verticalAlign=top;spacingLeft=4;spacingRight=4;overflow=hidden;rotatable=0;points=[[0,0.5],[1,0.5]];portConstraint=eastwest;labelBackgroundColor=none;fontColor=#393C56;" vertex="1" parent="013hZcBHefSOdsYqLP7i-34">
          <mxGeometry y="164" width="153" height="26" as="geometry" />
        </mxCell>
        <mxCell id="013hZcBHefSOdsYqLP7i-45" value="ClientHandler" style="swimlane;fontStyle=0;align=center;verticalAlign=top;childLayout=stackLayout;horizontal=1;startSize=26;horizontalStack=0;resizeParent=1;resizeLast=0;collapsible=1;marginBottom=0;rounded=0;shadow=0;strokeWidth=1;labelBackgroundColor=none;fillColor=#F2CC8F;strokeColor=#E07A5F;fontColor=#393C56;" vertex="1" parent="WIyWlLk6GJQsqaUBKTNV-1">
          <mxGeometry x="-500" y="40" width="160" height="140" as="geometry">
            <mxRectangle x="550" y="140" width="160" height="26" as="alternateBounds" />
          </mxGeometry>
        </mxCell>
        <mxCell id="013hZcBHefSOdsYqLP7i-48" value="int ClientSocket" style="text;align=left;verticalAlign=top;spacingLeft=4;spacingRight=4;overflow=hidden;rotatable=0;points=[[0,0.5],[1,0.5]];portConstraint=eastwest;labelBackgroundColor=none;fontColor=#393C56;" vertex="1" parent="013hZcBHefSOdsYqLP7i-45">
          <mxGeometry y="26" width="160" height="26" as="geometry" />
        </mxCell>
        <mxCell id="013hZcBHefSOdsYqLP7i-49" value="" style="line;html=1;strokeWidth=1;align=left;verticalAlign=middle;spacingTop=-1;spacingLeft=3;spacingRight=3;rotatable=0;labelPosition=right;points=[];portConstraint=eastwest;labelBackgroundColor=none;fillColor=#F2CC8F;strokeColor=#E07A5F;fontColor=#393C56;" vertex="1" parent="013hZcBHefSOdsYqLP7i-45">
          <mxGeometry y="52" width="160" height="8" as="geometry" />
        </mxCell>
        <mxCell id="013hZcBHefSOdsYqLP7i-51" value="HandleClients()" style="text;align=left;verticalAlign=top;spacingLeft=4;spacingRight=4;overflow=hidden;rotatable=0;points=[[0,0.5],[1,0.5]];portConstraint=eastwest;labelBackgroundColor=none;fontColor=#393C56;" vertex="1" parent="013hZcBHefSOdsYqLP7i-45">
          <mxGeometry y="60" width="160" height="26" as="geometry" />
        </mxCell>
        <mxCell id="013hZcBHefSOdsYqLP7i-53" value="RequestProcessor" style="swimlane;fontStyle=0;align=center;verticalAlign=top;childLayout=stackLayout;horizontal=1;startSize=26;horizontalStack=0;resizeParent=1;resizeLast=0;collapsible=1;marginBottom=0;rounded=0;shadow=0;strokeWidth=1;labelBackgroundColor=none;fillColor=#F2CC8F;strokeColor=#E07A5F;fontColor=#393C56;" vertex="1" parent="WIyWlLk6GJQsqaUBKTNV-1">
          <mxGeometry x="-770" y="60" width="160" height="140" as="geometry">
            <mxRectangle x="550" y="140" width="160" height="26" as="alternateBounds" />
          </mxGeometry>
        </mxCell>
        <mxCell id="013hZcBHefSOdsYqLP7i-55" value="" style="line;html=1;strokeWidth=1;align=left;verticalAlign=middle;spacingTop=-1;spacingLeft=3;spacingRight=3;rotatable=0;labelPosition=right;points=[];portConstraint=eastwest;labelBackgroundColor=none;fillColor=#F2CC8F;strokeColor=#E07A5F;fontColor=#393C56;" vertex="1" parent="013hZcBHefSOdsYqLP7i-53">
          <mxGeometry y="26" width="160" height="8" as="geometry" />
        </mxCell>
        <mxCell id="013hZcBHefSOdsYqLP7i-56" value="AuthenticationService" style="text;align=left;verticalAlign=top;spacingLeft=4;spacingRight=4;overflow=hidden;rotatable=0;points=[[0,0.5],[1,0.5]];portConstraint=eastwest;labelBackgroundColor=none;fontColor=#393C56;" vertex="1" parent="013hZcBHefSOdsYqLP7i-53">
          <mxGeometry y="34" width="160" height="26" as="geometry" />
        </mxCell>
        <mxCell id="013hZcBHefSOdsYqLP7i-197" value="IuserController" style="text;align=left;verticalAlign=top;spacingLeft=4;spacingRight=4;overflow=hidden;rotatable=0;points=[[0,0.5],[1,0.5]];portConstraint=eastwest;labelBackgroundColor=none;fontColor=#393C56;" vertex="1" parent="013hZcBHefSOdsYqLP7i-53">
          <mxGeometry y="60" width="160" height="26" as="geometry" />
        </mxCell>
        <mxCell id="013hZcBHefSOdsYqLP7i-256" value="" style="line;html=1;strokeWidth=1;align=left;verticalAlign=middle;spacingTop=-1;spacingLeft=3;spacingRight=3;rotatable=0;labelPosition=right;points=[];portConstraint=eastwest;labelBackgroundColor=none;fillColor=#F2CC8F;strokeColor=#E07A5F;fontColor=#393C56;" vertex="1" parent="013hZcBHefSOdsYqLP7i-53">
          <mxGeometry y="86" width="160" height="8" as="geometry" />
        </mxCell>
        <mxCell id="013hZcBHefSOdsYqLP7i-255" value="processRequest()" style="text;align=left;verticalAlign=top;spacingLeft=4;spacingRight=4;overflow=hidden;rotatable=0;points=[[0,0.5],[1,0.5]];portConstraint=eastwest;labelBackgroundColor=none;fontColor=#393C56;" vertex="1" parent="013hZcBHefSOdsYqLP7i-53">
          <mxGeometry y="94" width="160" height="24" as="geometry" />
        </mxCell>
        <mxCell id="013hZcBHefSOdsYqLP7i-58" value="" style="edgeStyle=orthogonalEdgeStyle;rounded=0;orthogonalLoop=1;jettySize=auto;html=1;strokeColor=#E07A5F;fontColor=#393C56;fillColor=#F2CC8F;" edge="1" parent="WIyWlLk6GJQsqaUBKTNV-1" source="013hZcBHefSOdsYqLP7i-51" target="013hZcBHefSOdsYqLP7i-37">
          <mxGeometry relative="1" as="geometry" />
        </mxCell>
        <mxCell id="013hZcBHefSOdsYqLP7i-59" value="" style="edgeStyle=orthogonalEdgeStyle;rounded=0;orthogonalLoop=1;jettySize=auto;html=1;strokeColor=#E07A5F;fontColor=#393C56;fillColor=#F2CC8F;" edge="1" parent="WIyWlLk6GJQsqaUBKTNV-1" source="013hZcBHefSOdsYqLP7i-56" target="013hZcBHefSOdsYqLP7i-51">
          <mxGeometry relative="1" as="geometry" />
        </mxCell>
        <mxCell id="013hZcBHefSOdsYqLP7i-69" value="RecommandationService" style="swimlane;fontStyle=0;align=center;verticalAlign=top;childLayout=stackLayout;horizontal=1;startSize=26;horizontalStack=0;resizeParent=1;resizeLast=0;collapsible=1;marginBottom=0;rounded=0;shadow=0;strokeWidth=1;labelBackgroundColor=none;fillColor=#F2CC8F;strokeColor=#E07A5F;fontColor=#393C56;" vertex="1" parent="WIyWlLk6GJQsqaUBKTNV-1">
          <mxGeometry x="-310" y="710" width="190" height="130" as="geometry">
            <mxRectangle x="550" y="140" width="160" height="26" as="alternateBounds" />
          </mxGeometry>
        </mxCell>
        <mxCell id="013hZcBHefSOdsYqLP7i-70" value="RecommandationSelectionDAO" style="text;align=left;verticalAlign=top;spacingLeft=4;spacingRight=4;overflow=hidden;rotatable=0;points=[[0,0.5],[1,0.5]];portConstraint=eastwest;labelBackgroundColor=none;fontColor=#393C56;" vertex="1" parent="013hZcBHefSOdsYqLP7i-69">
          <mxGeometry y="26" width="190" height="22" as="geometry" />
        </mxCell>
        <mxCell id="013hZcBHefSOdsYqLP7i-73" value="" style="line;html=1;strokeWidth=1;align=left;verticalAlign=middle;spacingTop=-1;spacingLeft=3;spacingRight=3;rotatable=0;labelPosition=right;points=[];portConstraint=eastwest;labelBackgroundColor=none;fillColor=#F2CC8F;strokeColor=#E07A5F;fontColor=#393C56;" vertex="1" parent="013hZcBHefSOdsYqLP7i-69">
          <mxGeometry y="48" width="190" height="8" as="geometry" />
        </mxCell>
        <mxCell id="013hZcBHefSOdsYqLP7i-74" value="getRecommendedMenuDetails()" style="text;align=left;verticalAlign=top;spacingLeft=4;spacingRight=4;overflow=hidden;rotatable=0;points=[[0,0.5],[1,0.5]];portConstraint=eastwest;labelBackgroundColor=none;fontColor=#393C56;" vertex="1" parent="013hZcBHefSOdsYqLP7i-69">
          <mxGeometry y="56" width="190" height="26" as="geometry" />
        </mxCell>
        <mxCell id="013hZcBHefSOdsYqLP7i-75" value="getMenuItemData()" style="text;align=left;verticalAlign=top;spacingLeft=4;spacingRight=4;overflow=hidden;rotatable=0;points=[[0,0.5],[1,0.5]];portConstraint=eastwest;labelBackgroundColor=none;fontColor=#393C56;" vertex="1" parent="013hZcBHefSOdsYqLP7i-69">
          <mxGeometry y="82" width="190" height="28" as="geometry" />
        </mxCell>
        <mxCell id="013hZcBHefSOdsYqLP7i-77" value="MenuItemService" style="swimlane;fontStyle=0;align=center;verticalAlign=top;childLayout=stackLayout;horizontal=1;startSize=26;horizontalStack=0;resizeParent=1;resizeLast=0;collapsible=1;marginBottom=0;rounded=0;shadow=0;strokeWidth=1;labelBackgroundColor=none;fillColor=#F2CC8F;strokeColor=#E07A5F;fontColor=#393C56;" vertex="1" parent="WIyWlLk6GJQsqaUBKTNV-1">
          <mxGeometry x="-540" y="710" width="153" height="212" as="geometry">
            <mxRectangle x="550" y="140" width="160" height="26" as="alternateBounds" />
          </mxGeometry>
        </mxCell>
        <mxCell id="013hZcBHefSOdsYqLP7i-78" value="MenuItemDAO" style="text;align=left;verticalAlign=top;spacingLeft=4;spacingRight=4;overflow=hidden;rotatable=0;points=[[0,0.5],[1,0.5]];portConstraint=eastwest;labelBackgroundColor=none;fontColor=#393C56;" vertex="1" parent="013hZcBHefSOdsYqLP7i-77">
          <mxGeometry y="26" width="153" height="22" as="geometry" />
        </mxCell>
        <mxCell id="013hZcBHefSOdsYqLP7i-81" value="" style="line;html=1;strokeWidth=1;align=left;verticalAlign=middle;spacingTop=-1;spacingLeft=3;spacingRight=3;rotatable=0;labelPosition=right;points=[];portConstraint=eastwest;labelBackgroundColor=none;fillColor=#F2CC8F;strokeColor=#E07A5F;fontColor=#393C56;" vertex="1" parent="013hZcBHefSOdsYqLP7i-77">
          <mxGeometry y="48" width="153" height="8" as="geometry" />
        </mxCell>
        <mxCell id="013hZcBHefSOdsYqLP7i-82" value="AddMenuItem()" style="text;align=left;verticalAlign=top;spacingLeft=4;spacingRight=4;overflow=hidden;rotatable=0;points=[[0,0.5],[1,0.5]];portConstraint=eastwest;labelBackgroundColor=none;fontColor=#393C56;" vertex="1" parent="013hZcBHefSOdsYqLP7i-77">
          <mxGeometry y="56" width="153" height="26" as="geometry" />
        </mxCell>
        <mxCell id="013hZcBHefSOdsYqLP7i-83" value="UpdateMenuItem()" style="text;align=left;verticalAlign=top;spacingLeft=4;spacingRight=4;overflow=hidden;rotatable=0;points=[[0,0.5],[1,0.5]];portConstraint=eastwest;labelBackgroundColor=none;fontColor=#393C56;" vertex="1" parent="013hZcBHefSOdsYqLP7i-77">
          <mxGeometry y="82" width="153" height="28" as="geometry" />
        </mxCell>
        <mxCell id="013hZcBHefSOdsYqLP7i-84" value="DeleteMenuItem" style="text;align=left;verticalAlign=top;spacingLeft=4;spacingRight=4;overflow=hidden;rotatable=0;points=[[0,0.5],[1,0.5]];portConstraint=eastwest;labelBackgroundColor=none;fontColor=#393C56;" vertex="1" parent="013hZcBHefSOdsYqLP7i-77">
          <mxGeometry y="110" width="153" height="26" as="geometry" />
        </mxCell>
        <mxCell id="013hZcBHefSOdsYqLP7i-225" value="getMenuItem()" style="text;align=left;verticalAlign=top;spacingLeft=4;spacingRight=4;overflow=hidden;rotatable=0;points=[[0,0.5],[1,0.5]];portConstraint=eastwest;labelBackgroundColor=none;fontColor=#393C56;" vertex="1" parent="013hZcBHefSOdsYqLP7i-77">
          <mxGeometry y="136" width="153" height="26" as="geometry" />
        </mxCell>
        <mxCell id="013hZcBHefSOdsYqLP7i-85" value="UserService" style="swimlane;fontStyle=0;align=center;verticalAlign=top;childLayout=stackLayout;horizontal=1;startSize=26;horizontalStack=0;resizeParent=1;resizeLast=0;collapsible=1;marginBottom=0;rounded=0;shadow=0;strokeWidth=1;labelBackgroundColor=none;fillColor=#F2CC8F;strokeColor=#E07A5F;fontColor=#393C56;" vertex="1" parent="WIyWlLk6GJQsqaUBKTNV-1">
          <mxGeometry x="-766.5" y="710" width="156.5" height="196" as="geometry">
            <mxRectangle x="550" y="140" width="160" height="26" as="alternateBounds" />
          </mxGeometry>
        </mxCell>
        <mxCell id="013hZcBHefSOdsYqLP7i-87" value="UserDAO" style="text;align=left;verticalAlign=top;spacingLeft=4;spacingRight=4;overflow=hidden;rotatable=0;points=[[0,0.5],[1,0.5]];portConstraint=eastwest;labelBackgroundColor=none;fontColor=#393C56;" vertex="1" parent="013hZcBHefSOdsYqLP7i-85">
          <mxGeometry y="26" width="156.5" height="26" as="geometry" />
        </mxCell>
        <mxCell id="013hZcBHefSOdsYqLP7i-89" value="" style="line;html=1;strokeWidth=1;align=left;verticalAlign=middle;spacingTop=-1;spacingLeft=3;spacingRight=3;rotatable=0;labelPosition=right;points=[];portConstraint=eastwest;labelBackgroundColor=none;fillColor=#F2CC8F;strokeColor=#E07A5F;fontColor=#393C56;" vertex="1" parent="013hZcBHefSOdsYqLP7i-85">
          <mxGeometry y="52" width="156.5" height="8" as="geometry" />
        </mxCell>
        <mxCell id="013hZcBHefSOdsYqLP7i-90" value="AddUser()" style="text;align=left;verticalAlign=top;spacingLeft=4;spacingRight=4;overflow=hidden;rotatable=0;points=[[0,0.5],[1,0.5]];portConstraint=eastwest;labelBackgroundColor=none;fontColor=#393C56;" vertex="1" parent="013hZcBHefSOdsYqLP7i-85">
          <mxGeometry y="60" width="156.5" height="26" as="geometry" />
        </mxCell>
        <mxCell id="013hZcBHefSOdsYqLP7i-91" value="getUser()" style="text;align=left;verticalAlign=top;spacingLeft=4;spacingRight=4;overflow=hidden;rotatable=0;points=[[0,0.5],[1,0.5]];portConstraint=eastwest;labelBackgroundColor=none;fontColor=#393C56;" vertex="1" parent="013hZcBHefSOdsYqLP7i-85">
          <mxGeometry y="86" width="156.5" height="26" as="geometry" />
        </mxCell>
        <mxCell id="013hZcBHefSOdsYqLP7i-92" value="getAllEmployee()" style="text;align=left;verticalAlign=top;spacingLeft=4;spacingRight=4;overflow=hidden;rotatable=0;points=[[0,0.5],[1,0.5]];portConstraint=eastwest;labelBackgroundColor=none;fontColor=#393C56;" vertex="1" parent="013hZcBHefSOdsYqLP7i-85">
          <mxGeometry y="112" width="156.5" height="28" as="geometry" />
        </mxCell>
        <mxCell id="013hZcBHefSOdsYqLP7i-223" value="DeleteUser()" style="text;align=left;verticalAlign=top;spacingLeft=4;spacingRight=4;overflow=hidden;rotatable=0;points=[[0,0.5],[1,0.5]];portConstraint=eastwest;labelBackgroundColor=none;fontColor=#393C56;" vertex="1" parent="013hZcBHefSOdsYqLP7i-85">
          <mxGeometry y="140" width="156.5" height="28" as="geometry" />
        </mxCell>
        <mxCell id="013hZcBHefSOdsYqLP7i-224" value="UpdateUser()" style="text;align=left;verticalAlign=top;spacingLeft=4;spacingRight=4;overflow=hidden;rotatable=0;points=[[0,0.5],[1,0.5]];portConstraint=eastwest;labelBackgroundColor=none;fontColor=#393C56;" vertex="1" parent="013hZcBHefSOdsYqLP7i-85">
          <mxGeometry y="168" width="156.5" height="28" as="geometry" />
        </mxCell>
        <mxCell id="013hZcBHefSOdsYqLP7i-111" value="UseDAO" style="swimlane;fontStyle=0;align=center;verticalAlign=top;childLayout=stackLayout;horizontal=1;startSize=26;horizontalStack=0;resizeParent=1;resizeLast=0;collapsible=1;marginBottom=0;rounded=0;shadow=0;strokeWidth=1;labelBackgroundColor=none;fillColor=#F2CC8F;strokeColor=#E07A5F;fontColor=#393C56;" vertex="1" parent="WIyWlLk6GJQsqaUBKTNV-1">
          <mxGeometry x="-780" y="950" width="153" height="190" as="geometry">
            <mxRectangle x="550" y="140" width="160" height="26" as="alternateBounds" />
          </mxGeometry>
        </mxCell>
        <mxCell id="013hZcBHefSOdsYqLP7i-112" value="databaseconnection" style="text;align=left;verticalAlign=top;spacingLeft=4;spacingRight=4;overflow=hidden;rotatable=0;points=[[0,0.5],[1,0.5]];portConstraint=eastwest;labelBackgroundColor=none;fontColor=#393C56;" vertex="1" parent="013hZcBHefSOdsYqLP7i-111">
          <mxGeometry y="26" width="153" height="26" as="geometry" />
        </mxCell>
        <mxCell id="013hZcBHefSOdsYqLP7i-114" value="" style="line;html=1;strokeWidth=1;align=left;verticalAlign=middle;spacingTop=-1;spacingLeft=3;spacingRight=3;rotatable=0;labelPosition=right;points=[];portConstraint=eastwest;labelBackgroundColor=none;fillColor=#F2CC8F;strokeColor=#E07A5F;fontColor=#393C56;" vertex="1" parent="013hZcBHefSOdsYqLP7i-111">
          <mxGeometry y="52" width="153" height="8" as="geometry" />
        </mxCell>
        <mxCell id="013hZcBHefSOdsYqLP7i-115" value="addUser()" style="text;align=left;verticalAlign=top;spacingLeft=4;spacingRight=4;overflow=hidden;rotatable=0;points=[[0,0.5],[1,0.5]];portConstraint=eastwest;labelBackgroundColor=none;fontColor=#393C56;" vertex="1" parent="013hZcBHefSOdsYqLP7i-111">
          <mxGeometry y="60" width="153" height="26" as="geometry" />
        </mxCell>
        <mxCell id="013hZcBHefSOdsYqLP7i-116" value="updateUser()" style="text;align=left;verticalAlign=top;spacingLeft=4;spacingRight=4;overflow=hidden;rotatable=0;points=[[0,0.5],[1,0.5]];portConstraint=eastwest;labelBackgroundColor=none;fontColor=#393C56;" vertex="1" parent="013hZcBHefSOdsYqLP7i-111">
          <mxGeometry y="86" width="153" height="26" as="geometry" />
        </mxCell>
        <mxCell id="013hZcBHefSOdsYqLP7i-117" value="deleteUser()" style="text;align=left;verticalAlign=top;spacingLeft=4;spacingRight=4;overflow=hidden;rotatable=0;points=[[0,0.5],[1,0.5]];portConstraint=eastwest;labelBackgroundColor=none;fontColor=#393C56;" vertex="1" parent="013hZcBHefSOdsYqLP7i-111">
          <mxGeometry y="112" width="153" height="30" as="geometry" />
        </mxCell>
        <mxCell id="013hZcBHefSOdsYqLP7i-238" value="    getUserById()" style="text;align=left;verticalAlign=top;spacingLeft=4;spacingRight=4;overflow=hidden;rotatable=0;points=[[0,0.5],[1,0.5]];portConstraint=eastwest;labelBackgroundColor=none;fontColor=#393C56;" vertex="1" parent="013hZcBHefSOdsYqLP7i-111">
          <mxGeometry y="142" width="153" height="30" as="geometry" />
        </mxCell>
        <mxCell id="013hZcBHefSOdsYqLP7i-119" value="MenuItemDAO" style="swimlane;fontStyle=0;align=center;verticalAlign=top;childLayout=stackLayout;horizontal=1;startSize=26;horizontalStack=0;resizeParent=1;resizeLast=0;collapsible=1;marginBottom=0;rounded=0;shadow=0;strokeWidth=1;labelBackgroundColor=none;fillColor=#F2CC8F;strokeColor=#E07A5F;fontColor=#393C56;" vertex="1" parent="WIyWlLk6GJQsqaUBKTNV-1">
          <mxGeometry x="-550" y="950" width="153" height="190" as="geometry">
            <mxRectangle x="550" y="140" width="160" height="26" as="alternateBounds" />
          </mxGeometry>
        </mxCell>
        <mxCell id="013hZcBHefSOdsYqLP7i-120" value="databaseconnection" style="text;align=left;verticalAlign=top;spacingLeft=4;spacingRight=4;overflow=hidden;rotatable=0;points=[[0,0.5],[1,0.5]];portConstraint=eastwest;labelBackgroundColor=none;fontColor=#393C56;" vertex="1" parent="013hZcBHefSOdsYqLP7i-119">
          <mxGeometry y="26" width="153" height="26" as="geometry" />
        </mxCell>
        <mxCell id="013hZcBHefSOdsYqLP7i-122" value="" style="line;html=1;strokeWidth=1;align=left;verticalAlign=middle;spacingTop=-1;spacingLeft=3;spacingRight=3;rotatable=0;labelPosition=right;points=[];portConstraint=eastwest;labelBackgroundColor=none;fillColor=#F2CC8F;strokeColor=#E07A5F;fontColor=#393C56;" vertex="1" parent="013hZcBHefSOdsYqLP7i-119">
          <mxGeometry y="52" width="153" height="8" as="geometry" />
        </mxCell>
        <mxCell id="013hZcBHefSOdsYqLP7i-123" value="getMenuItemByID" style="text;align=left;verticalAlign=top;spacingLeft=4;spacingRight=4;overflow=hidden;rotatable=0;points=[[0,0.5],[1,0.5]];portConstraint=eastwest;labelBackgroundColor=none;fontColor=#393C56;" vertex="1" parent="013hZcBHefSOdsYqLP7i-119">
          <mxGeometry y="60" width="153" height="26" as="geometry" />
        </mxCell>
        <mxCell id="013hZcBHefSOdsYqLP7i-124" value="getAllMenuItems" style="text;align=left;verticalAlign=top;spacingLeft=4;spacingRight=4;overflow=hidden;rotatable=0;points=[[0,0.5],[1,0.5]];portConstraint=eastwest;labelBackgroundColor=none;fontColor=#393C56;" vertex="1" parent="013hZcBHefSOdsYqLP7i-119">
          <mxGeometry y="86" width="153" height="26" as="geometry" />
        </mxCell>
        <mxCell id="013hZcBHefSOdsYqLP7i-125" value="getMenuItemByType" style="text;align=left;verticalAlign=top;spacingLeft=4;spacingRight=4;overflow=hidden;rotatable=0;points=[[0,0.5],[1,0.5]];portConstraint=eastwest;labelBackgroundColor=none;fontColor=#393C56;" vertex="1" parent="013hZcBHefSOdsYqLP7i-119">
          <mxGeometry y="112" width="153" height="26" as="geometry" />
        </mxCell>
        <mxCell id="013hZcBHefSOdsYqLP7i-239" value="addMenuItem" style="text;align=left;verticalAlign=top;spacingLeft=4;spacingRight=4;overflow=hidden;rotatable=0;points=[[0,0.5],[1,0.5]];portConstraint=eastwest;labelBackgroundColor=none;fontColor=#393C56;" vertex="1" parent="013hZcBHefSOdsYqLP7i-119">
          <mxGeometry y="138" width="153" height="26" as="geometry" />
        </mxCell>
        <mxCell id="013hZcBHefSOdsYqLP7i-240" value="updateMenuItem" style="text;align=left;verticalAlign=top;spacingLeft=4;spacingRight=4;overflow=hidden;rotatable=0;points=[[0,0.5],[1,0.5]];portConstraint=eastwest;labelBackgroundColor=none;fontColor=#393C56;" vertex="1" parent="013hZcBHefSOdsYqLP7i-119">
          <mxGeometry y="164" width="153" height="26" as="geometry" />
        </mxCell>
        <mxCell id="013hZcBHefSOdsYqLP7i-126" value="RecommendationSelectionDAO" style="swimlane;fontStyle=0;align=center;verticalAlign=top;childLayout=stackLayout;horizontal=1;startSize=30;horizontalStack=0;resizeParent=1;resizeLast=0;collapsible=1;marginBottom=0;rounded=0;shadow=0;strokeWidth=1;labelBackgroundColor=none;fillColor=#F2CC8F;strokeColor=#E07A5F;fontColor=#393C56;" vertex="1" parent="WIyWlLk6GJQsqaUBKTNV-1">
          <mxGeometry x="-320" y="950" width="180" height="194" as="geometry">
            <mxRectangle x="550" y="140" width="160" height="26" as="alternateBounds" />
          </mxGeometry>
        </mxCell>
        <mxCell id="013hZcBHefSOdsYqLP7i-127" value="databaseconnection" style="text;align=left;verticalAlign=top;spacingLeft=4;spacingRight=4;overflow=hidden;rotatable=0;points=[[0,0.5],[1,0.5]];portConstraint=eastwest;labelBackgroundColor=none;fontColor=#393C56;" vertex="1" parent="013hZcBHefSOdsYqLP7i-126">
          <mxGeometry y="30" width="180" height="26" as="geometry" />
        </mxCell>
        <mxCell id="013hZcBHefSOdsYqLP7i-129" value="" style="line;html=1;strokeWidth=1;align=left;verticalAlign=middle;spacingTop=-1;spacingLeft=3;spacingRight=3;rotatable=0;labelPosition=right;points=[];portConstraint=eastwest;labelBackgroundColor=none;fillColor=#F2CC8F;strokeColor=#E07A5F;fontColor=#393C56;" vertex="1" parent="013hZcBHefSOdsYqLP7i-126">
          <mxGeometry y="56" width="180" height="8" as="geometry" />
        </mxCell>
        <mxCell id="013hZcBHefSOdsYqLP7i-130" value="addRecommendationSelection" style="text;align=left;verticalAlign=top;spacingLeft=4;spacingRight=4;overflow=hidden;rotatable=0;points=[[0,0.5],[1,0.5]];portConstraint=eastwest;labelBackgroundColor=none;fontColor=#393C56;" vertex="1" parent="013hZcBHefSOdsYqLP7i-126">
          <mxGeometry y="64" width="180" height="26" as="geometry" />
        </mxCell>
        <mxCell id="013hZcBHefSOdsYqLP7i-131" value="getRecommendationSelectionById" style="text;align=left;verticalAlign=top;spacingLeft=4;spacingRight=4;overflow=hidden;rotatable=0;points=[[0,0.5],[1,0.5]];portConstraint=eastwest;labelBackgroundColor=none;fontColor=#393C56;" vertex="1" parent="013hZcBHefSOdsYqLP7i-126">
          <mxGeometry y="90" width="180" height="26" as="geometry" />
        </mxCell>
        <mxCell id="013hZcBHefSOdsYqLP7i-132" value="updateRecommendationSelection" style="text;align=left;verticalAlign=top;spacingLeft=4;spacingRight=4;overflow=hidden;rotatable=0;points=[[0,0.5],[1,0.5]];portConstraint=eastwest;labelBackgroundColor=none;fontColor=#393C56;" vertex="1" parent="013hZcBHefSOdsYqLP7i-126">
          <mxGeometry y="116" width="180" height="26" as="geometry" />
        </mxCell>
        <mxCell id="013hZcBHefSOdsYqLP7i-241" value="deleteRecommendationSelection" style="text;align=left;verticalAlign=top;spacingLeft=4;spacingRight=4;overflow=hidden;rotatable=0;points=[[0,0.5],[1,0.5]];portConstraint=eastwest;labelBackgroundColor=none;fontColor=#393C56;" vertex="1" parent="013hZcBHefSOdsYqLP7i-126">
          <mxGeometry y="142" width="180" height="26" as="geometry" />
        </mxCell>
        <mxCell id="013hZcBHefSOdsYqLP7i-242" value="getRecommendationSelectionByMenuItemId" style="text;align=left;verticalAlign=top;spacingLeft=4;spacingRight=4;overflow=hidden;rotatable=0;points=[[0,0.5],[1,0.5]];portConstraint=eastwest;labelBackgroundColor=none;fontColor=#393C56;" vertex="1" parent="013hZcBHefSOdsYqLP7i-126">
          <mxGeometry y="168" width="180" height="26" as="geometry" />
        </mxCell>
        <mxCell id="013hZcBHefSOdsYqLP7i-133" value="NotificationDAO" style="swimlane;fontStyle=0;align=center;verticalAlign=top;childLayout=stackLayout;horizontal=1;startSize=26;horizontalStack=0;resizeParent=1;resizeLast=0;collapsible=1;marginBottom=0;rounded=0;shadow=0;strokeWidth=1;labelBackgroundColor=none;fillColor=#F2CC8F;strokeColor=#E07A5F;fontColor=#393C56;" vertex="1" parent="WIyWlLk6GJQsqaUBKTNV-1">
          <mxGeometry x="-57" y="950" width="153" height="190" as="geometry">
            <mxRectangle x="550" y="140" width="160" height="26" as="alternateBounds" />
          </mxGeometry>
        </mxCell>
        <mxCell id="013hZcBHefSOdsYqLP7i-134" value="databaseconnection" style="text;align=left;verticalAlign=top;spacingLeft=4;spacingRight=4;overflow=hidden;rotatable=0;points=[[0,0.5],[1,0.5]];portConstraint=eastwest;labelBackgroundColor=none;fontColor=#393C56;" vertex="1" parent="013hZcBHefSOdsYqLP7i-133">
          <mxGeometry y="26" width="153" height="26" as="geometry" />
        </mxCell>
        <mxCell id="013hZcBHefSOdsYqLP7i-136" value="" style="line;html=1;strokeWidth=1;align=left;verticalAlign=middle;spacingTop=-1;spacingLeft=3;spacingRight=3;rotatable=0;labelPosition=right;points=[];portConstraint=eastwest;labelBackgroundColor=none;fillColor=#F2CC8F;strokeColor=#E07A5F;fontColor=#393C56;" vertex="1" parent="013hZcBHefSOdsYqLP7i-133">
          <mxGeometry y="52" width="153" height="8" as="geometry" />
        </mxCell>
        <mxCell id="013hZcBHefSOdsYqLP7i-137" value="getAllNotifications" style="text;align=left;verticalAlign=top;spacingLeft=4;spacingRight=4;overflow=hidden;rotatable=0;points=[[0,0.5],[1,0.5]];portConstraint=eastwest;labelBackgroundColor=none;fontColor=#393C56;" vertex="1" parent="013hZcBHefSOdsYqLP7i-133">
          <mxGeometry y="60" width="153" height="26" as="geometry" />
        </mxCell>
        <mxCell id="013hZcBHefSOdsYqLP7i-138" value="getNotificationById" style="text;align=left;verticalAlign=top;spacingLeft=4;spacingRight=4;overflow=hidden;rotatable=0;points=[[0,0.5],[1,0.5]];portConstraint=eastwest;labelBackgroundColor=none;fontColor=#393C56;" vertex="1" parent="013hZcBHefSOdsYqLP7i-133">
          <mxGeometry y="86" width="153" height="26" as="geometry" />
        </mxCell>
        <mxCell id="013hZcBHefSOdsYqLP7i-139" value="addNotification" style="text;align=left;verticalAlign=top;spacingLeft=4;spacingRight=4;overflow=hidden;rotatable=0;points=[[0,0.5],[1,0.5]];portConstraint=eastwest;labelBackgroundColor=none;fontColor=#393C56;" vertex="1" parent="013hZcBHefSOdsYqLP7i-133">
          <mxGeometry y="112" width="153" height="26" as="geometry" />
        </mxCell>
        <mxCell id="013hZcBHefSOdsYqLP7i-243" value="updateNotification" style="text;align=left;verticalAlign=top;spacingLeft=4;spacingRight=4;overflow=hidden;rotatable=0;points=[[0,0.5],[1,0.5]];portConstraint=eastwest;labelBackgroundColor=none;fontColor=#393C56;" vertex="1" parent="013hZcBHefSOdsYqLP7i-133">
          <mxGeometry y="138" width="153" height="26" as="geometry" />
        </mxCell>
        <mxCell id="013hZcBHefSOdsYqLP7i-244" value="deleteNotification" style="text;align=left;verticalAlign=top;spacingLeft=4;spacingRight=4;overflow=hidden;rotatable=0;points=[[0,0.5],[1,0.5]];portConstraint=eastwest;labelBackgroundColor=none;fontColor=#393C56;" vertex="1" parent="013hZcBHefSOdsYqLP7i-133">
          <mxGeometry y="164" width="153" height="26" as="geometry" />
        </mxCell>
        <mxCell id="013hZcBHefSOdsYqLP7i-140" value="FeedbackDAO" style="swimlane;fontStyle=0;align=center;verticalAlign=top;childLayout=stackLayout;horizontal=1;startSize=26;horizontalStack=0;resizeParent=1;resizeLast=0;collapsible=1;marginBottom=0;rounded=0;shadow=0;strokeWidth=1;labelBackgroundColor=none;fillColor=#F2CC8F;strokeColor=#E07A5F;fontColor=#393C56;" vertex="1" parent="WIyWlLk6GJQsqaUBKTNV-1">
          <mxGeometry x="190" y="950" width="153" height="190" as="geometry">
            <mxRectangle x="550" y="140" width="160" height="26" as="alternateBounds" />
          </mxGeometry>
        </mxCell>
        <mxCell id="013hZcBHefSOdsYqLP7i-141" value="databaseconnection" style="text;align=left;verticalAlign=top;spacingLeft=4;spacingRight=4;overflow=hidden;rotatable=0;points=[[0,0.5],[1,0.5]];portConstraint=eastwest;labelBackgroundColor=none;fontColor=#393C56;" vertex="1" parent="013hZcBHefSOdsYqLP7i-140">
          <mxGeometry y="26" width="153" height="26" as="geometry" />
        </mxCell>
        <mxCell id="013hZcBHefSOdsYqLP7i-143" value="" style="line;html=1;strokeWidth=1;align=left;verticalAlign=middle;spacingTop=-1;spacingLeft=3;spacingRight=3;rotatable=0;labelPosition=right;points=[];portConstraint=eastwest;labelBackgroundColor=none;fillColor=#F2CC8F;strokeColor=#E07A5F;fontColor=#393C56;" vertex="1" parent="013hZcBHefSOdsYqLP7i-140">
          <mxGeometry y="52" width="153" height="8" as="geometry" />
        </mxCell>
        <mxCell id="013hZcBHefSOdsYqLP7i-144" value="addFeedback" style="text;align=left;verticalAlign=top;spacingLeft=4;spacingRight=4;overflow=hidden;rotatable=0;points=[[0,0.5],[1,0.5]];portConstraint=eastwest;labelBackgroundColor=none;fontColor=#393C56;" vertex="1" parent="013hZcBHefSOdsYqLP7i-140">
          <mxGeometry y="60" width="153" height="26" as="geometry" />
        </mxCell>
        <mxCell id="013hZcBHefSOdsYqLP7i-145" value="updateFeedback" style="text;align=left;verticalAlign=top;spacingLeft=4;spacingRight=4;overflow=hidden;rotatable=0;points=[[0,0.5],[1,0.5]];portConstraint=eastwest;labelBackgroundColor=none;fontColor=#393C56;" vertex="1" parent="013hZcBHefSOdsYqLP7i-140">
          <mxGeometry y="86" width="153" height="26" as="geometry" />
        </mxCell>
        <mxCell id="013hZcBHefSOdsYqLP7i-146" value="deleteFeedbackByID" style="text;align=left;verticalAlign=top;spacingLeft=4;spacingRight=4;overflow=hidden;rotatable=0;points=[[0,0.5],[1,0.5]];portConstraint=eastwest;labelBackgroundColor=none;fontColor=#393C56;" vertex="1" parent="013hZcBHefSOdsYqLP7i-140">
          <mxGeometry y="112" width="153" height="26" as="geometry" />
        </mxCell>
        <mxCell id="013hZcBHefSOdsYqLP7i-245" value="getFeedbackById" style="text;align=left;verticalAlign=top;spacingLeft=4;spacingRight=4;overflow=hidden;rotatable=0;points=[[0,0.5],[1,0.5]];portConstraint=eastwest;labelBackgroundColor=none;fontColor=#393C56;" vertex="1" parent="013hZcBHefSOdsYqLP7i-140">
          <mxGeometry y="138" width="153" height="26" as="geometry" />
        </mxCell>
        <mxCell id="013hZcBHefSOdsYqLP7i-246" value="getFeedbacksByMenuId" style="text;align=left;verticalAlign=top;spacingLeft=4;spacingRight=4;overflow=hidden;rotatable=0;points=[[0,0.5],[1,0.5]];portConstraint=eastwest;labelBackgroundColor=none;fontColor=#393C56;" vertex="1" parent="013hZcBHefSOdsYqLP7i-140">
          <mxGeometry y="164" width="153" height="26" as="geometry" />
        </mxCell>
        <mxCell id="013hZcBHefSOdsYqLP7i-153" value="AdminController" style="swimlane;fontStyle=0;align=center;verticalAlign=top;childLayout=stackLayout;horizontal=1;startSize=26;horizontalStack=0;resizeParent=1;resizeLast=0;collapsible=1;marginBottom=0;rounded=0;shadow=0;strokeWidth=1;labelBackgroundColor=none;fillColor=#F2CC8F;strokeColor=#E07A5F;fontColor=#393C56;" vertex="1" parent="WIyWlLk6GJQsqaUBKTNV-1">
          <mxGeometry x="-730" y="460" width="160" height="138" as="geometry">
            <mxRectangle x="550" y="140" width="160" height="26" as="alternateBounds" />
          </mxGeometry>
        </mxCell>
        <mxCell id="013hZcBHefSOdsYqLP7i-154" value="UserService" style="text;align=left;verticalAlign=top;spacingLeft=4;spacingRight=4;overflow=hidden;rotatable=0;points=[[0,0.5],[1,0.5]];portConstraint=eastwest;labelBackgroundColor=none;fontColor=#393C56;" vertex="1" parent="013hZcBHefSOdsYqLP7i-153">
          <mxGeometry y="26" width="160" height="26" as="geometry" />
        </mxCell>
        <mxCell id="013hZcBHefSOdsYqLP7i-155" value="MenuService" style="text;align=left;verticalAlign=top;spacingLeft=4;spacingRight=4;overflow=hidden;rotatable=0;points=[[0,0.5],[1,0.5]];portConstraint=eastwest;labelBackgroundColor=none;fontColor=#393C56;" vertex="1" parent="013hZcBHefSOdsYqLP7i-153">
          <mxGeometry y="52" width="160" height="26" as="geometry" />
        </mxCell>
        <mxCell id="013hZcBHefSOdsYqLP7i-156" value="NotificationService" style="text;align=left;verticalAlign=top;spacingLeft=4;spacingRight=4;overflow=hidden;rotatable=0;points=[[0,0.5],[1,0.5]];portConstraint=eastwest;labelBackgroundColor=none;fontColor=#393C56;" vertex="1" parent="013hZcBHefSOdsYqLP7i-153">
          <mxGeometry y="78" width="160" height="26" as="geometry" />
        </mxCell>
        <mxCell id="013hZcBHefSOdsYqLP7i-157" value="" style="line;html=1;strokeWidth=1;align=left;verticalAlign=middle;spacingTop=-1;spacingLeft=3;spacingRight=3;rotatable=0;labelPosition=right;points=[];portConstraint=eastwest;labelBackgroundColor=none;fillColor=#F2CC8F;strokeColor=#E07A5F;fontColor=#393C56;" vertex="1" parent="013hZcBHefSOdsYqLP7i-153">
          <mxGeometry y="104" width="160" height="8" as="geometry" />
        </mxCell>
        <mxCell id="013hZcBHefSOdsYqLP7i-158" value="handleRequest()" style="text;align=left;verticalAlign=top;spacingLeft=4;spacingRight=4;overflow=hidden;rotatable=0;points=[[0,0.5],[1,0.5]];portConstraint=eastwest;labelBackgroundColor=none;fontColor=#393C56;" vertex="1" parent="013hZcBHefSOdsYqLP7i-153">
          <mxGeometry y="112" width="160" height="26" as="geometry" />
        </mxCell>
        <mxCell id="013hZcBHefSOdsYqLP7i-161" value="ChefController" style="swimlane;fontStyle=0;align=center;verticalAlign=top;childLayout=stackLayout;horizontal=1;startSize=26;horizontalStack=0;resizeParent=1;resizeLast=0;collapsible=1;marginBottom=0;rounded=0;shadow=0;strokeWidth=1;labelBackgroundColor=none;fillColor=#F2CC8F;strokeColor=#E07A5F;fontColor=#393C56;" vertex="1" parent="WIyWlLk6GJQsqaUBKTNV-1">
          <mxGeometry x="-380" y="460" width="150" height="190" as="geometry">
            <mxRectangle x="550" y="140" width="160" height="26" as="alternateBounds" />
          </mxGeometry>
        </mxCell>
        <mxCell id="013hZcBHefSOdsYqLP7i-162" value="FeedbackService" style="text;align=left;verticalAlign=top;spacingLeft=4;spacingRight=4;overflow=hidden;rotatable=0;points=[[0,0.5],[1,0.5]];portConstraint=eastwest;labelBackgroundColor=none;fontColor=#393C56;" vertex="1" parent="013hZcBHefSOdsYqLP7i-161">
          <mxGeometry y="26" width="150" height="26" as="geometry" />
        </mxCell>
        <mxCell id="013hZcBHefSOdsYqLP7i-163" value="NotificationService" style="text;align=left;verticalAlign=top;spacingLeft=4;spacingRight=4;overflow=hidden;rotatable=0;points=[[0,0.5],[1,0.5]];portConstraint=eastwest;labelBackgroundColor=none;fontColor=#393C56;" vertex="1" parent="013hZcBHefSOdsYqLP7i-161">
          <mxGeometry y="52" width="150" height="26" as="geometry" />
        </mxCell>
        <mxCell id="013hZcBHefSOdsYqLP7i-164" value="MenuItemService" style="text;align=left;verticalAlign=top;spacingLeft=4;spacingRight=4;overflow=hidden;rotatable=0;points=[[0,0.5],[1,0.5]];portConstraint=eastwest;labelBackgroundColor=none;fontColor=#393C56;" vertex="1" parent="013hZcBHefSOdsYqLP7i-161">
          <mxGeometry y="78" width="150" height="26" as="geometry" />
        </mxCell>
        <mxCell id="013hZcBHefSOdsYqLP7i-247" value="RecommandationEngine" style="text;align=left;verticalAlign=top;spacingLeft=4;spacingRight=4;overflow=hidden;rotatable=0;points=[[0,0.5],[1,0.5]];portConstraint=eastwest;labelBackgroundColor=none;fontColor=#393C56;" vertex="1" parent="013hZcBHefSOdsYqLP7i-161">
          <mxGeometry y="104" width="150" height="26" as="geometry" />
        </mxCell>
        <mxCell id="013hZcBHefSOdsYqLP7i-165" value="" style="line;html=1;strokeWidth=1;align=left;verticalAlign=middle;spacingTop=-1;spacingLeft=3;spacingRight=3;rotatable=0;labelPosition=right;points=[];portConstraint=eastwest;labelBackgroundColor=none;fillColor=#F2CC8F;strokeColor=#E07A5F;fontColor=#393C56;" vertex="1" parent="013hZcBHefSOdsYqLP7i-161">
          <mxGeometry y="130" width="150" height="8" as="geometry" />
        </mxCell>
        <mxCell id="013hZcBHefSOdsYqLP7i-166" value="handleRequest()" style="text;align=left;verticalAlign=top;spacingLeft=4;spacingRight=4;overflow=hidden;rotatable=0;points=[[0,0.5],[1,0.5]];portConstraint=eastwest;labelBackgroundColor=none;fontColor=#393C56;" vertex="1" parent="013hZcBHefSOdsYqLP7i-161">
          <mxGeometry y="138" width="150" height="26" as="geometry" />
        </mxCell>
        <mxCell id="013hZcBHefSOdsYqLP7i-248" value="getRecommandation()" style="text;align=left;verticalAlign=top;spacingLeft=4;spacingRight=4;overflow=hidden;rotatable=0;points=[[0,0.5],[1,0.5]];portConstraint=eastwest;labelBackgroundColor=none;fontColor=#393C56;" vertex="1" parent="013hZcBHefSOdsYqLP7i-161">
          <mxGeometry y="164" width="150" height="26" as="geometry" />
        </mxCell>
        <mxCell id="013hZcBHefSOdsYqLP7i-169" value="EmployeeController" style="swimlane;fontStyle=0;align=center;verticalAlign=top;childLayout=stackLayout;horizontal=1;startSize=26;horizontalStack=0;resizeParent=1;resizeLast=0;collapsible=1;marginBottom=0;rounded=0;shadow=0;strokeWidth=1;labelBackgroundColor=none;fillColor=#F2CC8F;strokeColor=#E07A5F;fontColor=#393C56;" vertex="1" parent="WIyWlLk6GJQsqaUBKTNV-1">
          <mxGeometry x="-30" y="460" width="160" height="160" as="geometry">
            <mxRectangle x="550" y="140" width="160" height="26" as="alternateBounds" />
          </mxGeometry>
        </mxCell>
        <mxCell id="013hZcBHefSOdsYqLP7i-170" value="FeedbackService" style="text;align=left;verticalAlign=top;spacingLeft=4;spacingRight=4;overflow=hidden;rotatable=0;points=[[0,0.5],[1,0.5]];portConstraint=eastwest;labelBackgroundColor=none;fontColor=#393C56;" vertex="1" parent="013hZcBHefSOdsYqLP7i-169">
          <mxGeometry y="26" width="160" height="26" as="geometry" />
        </mxCell>
        <mxCell id="013hZcBHefSOdsYqLP7i-171" value="RecommendationSelectionService" style="text;align=left;verticalAlign=top;spacingLeft=4;spacingRight=4;overflow=hidden;rotatable=0;points=[[0,0.5],[1,0.5]];portConstraint=eastwest;labelBackgroundColor=none;fontColor=#393C56;" vertex="1" parent="013hZcBHefSOdsYqLP7i-169">
          <mxGeometry y="52" width="160" height="30" as="geometry" />
        </mxCell>
        <mxCell id="013hZcBHefSOdsYqLP7i-172" value="NotificationService" style="text;align=left;verticalAlign=top;spacingLeft=4;spacingRight=4;overflow=hidden;rotatable=0;points=[[0,0.5],[1,0.5]];portConstraint=eastwest;labelBackgroundColor=none;fontColor=#393C56;" vertex="1" parent="013hZcBHefSOdsYqLP7i-169">
          <mxGeometry y="82" width="160" height="26" as="geometry" />
        </mxCell>
        <mxCell id="013hZcBHefSOdsYqLP7i-173" value="" style="line;html=1;strokeWidth=1;align=left;verticalAlign=middle;spacingTop=-1;spacingLeft=3;spacingRight=3;rotatable=0;labelPosition=right;points=[];portConstraint=eastwest;labelBackgroundColor=none;fillColor=#F2CC8F;strokeColor=#E07A5F;fontColor=#393C56;" vertex="1" parent="013hZcBHefSOdsYqLP7i-169">
          <mxGeometry y="108" width="160" height="8" as="geometry" />
        </mxCell>
        <mxCell id="013hZcBHefSOdsYqLP7i-174" value="HandleRequest()" style="text;align=left;verticalAlign=top;spacingLeft=4;spacingRight=4;overflow=hidden;rotatable=0;points=[[0,0.5],[1,0.5]];portConstraint=eastwest;labelBackgroundColor=none;fontColor=#393C56;" vertex="1" parent="013hZcBHefSOdsYqLP7i-169">
          <mxGeometry y="116" width="160" height="26" as="geometry" />
        </mxCell>
        <mxCell id="013hZcBHefSOdsYqLP7i-192" style="edgeStyle=orthogonalEdgeStyle;rounded=0;orthogonalLoop=1;jettySize=auto;html=1;exitX=0;exitY=0;exitDx=0;exitDy=0;entryX=1;entryY=1;entryDx=0;entryDy=0;strokeColor=#E07A5F;fontColor=#393C56;fillColor=#F2CC8F;" edge="1" parent="WIyWlLk6GJQsqaUBKTNV-1" source="013hZcBHefSOdsYqLP7i-182" target="013hZcBHefSOdsYqLP7i-53">
          <mxGeometry relative="1" as="geometry">
            <Array as="points">
              <mxPoint x="-610" y="220" />
            </Array>
          </mxGeometry>
        </mxCell>
        <mxCell id="013hZcBHefSOdsYqLP7i-182" value="IUserController" style="swimlane;fontStyle=0;align=center;verticalAlign=top;childLayout=stackLayout;horizontal=1;startSize=26;horizontalStack=0;resizeParent=1;resizeLast=0;collapsible=1;marginBottom=0;rounded=0;shadow=0;strokeWidth=1;labelBackgroundColor=none;fillColor=#F2CC8F;strokeColor=#E07A5F;fontColor=#393C56;" vertex="1" parent="WIyWlLk6GJQsqaUBKTNV-1">
          <mxGeometry x="-430" y="282" width="160" height="90" as="geometry">
            <mxRectangle x="550" y="140" width="160" height="26" as="alternateBounds" />
          </mxGeometry>
        </mxCell>
        <mxCell id="013hZcBHefSOdsYqLP7i-186" value="" style="line;html=1;strokeWidth=1;align=left;verticalAlign=middle;spacingTop=-1;spacingLeft=3;spacingRight=3;rotatable=0;labelPosition=right;points=[];portConstraint=eastwest;labelBackgroundColor=none;fillColor=#F2CC8F;strokeColor=#E07A5F;fontColor=#393C56;" vertex="1" parent="013hZcBHefSOdsYqLP7i-182">
          <mxGeometry y="26" width="160" height="8" as="geometry" />
        </mxCell>
        <mxCell id="013hZcBHefSOdsYqLP7i-187" value="handleRequest()" style="text;align=left;verticalAlign=top;spacingLeft=4;spacingRight=4;overflow=hidden;rotatable=0;points=[[0,0.5],[1,0.5]];portConstraint=eastwest;labelBackgroundColor=none;fontColor=#393C56;" vertex="1" parent="013hZcBHefSOdsYqLP7i-182">
          <mxGeometry y="34" width="160" height="26" as="geometry" />
        </mxCell>
        <mxCell id="013hZcBHefSOdsYqLP7i-198" value="RecommendationEngine" style="swimlane;fontStyle=0;align=center;verticalAlign=top;childLayout=stackLayout;horizontal=1;startSize=26;horizontalStack=0;resizeParent=1;resizeLast=0;collapsible=1;marginBottom=0;rounded=0;shadow=0;strokeWidth=1;labelBackgroundColor=none;fillColor=#F2CC8F;strokeColor=#E07A5F;fontColor=#393C56;" vertex="1" parent="WIyWlLk6GJQsqaUBKTNV-1">
          <mxGeometry x="500" y="560" width="160" height="170" as="geometry">
            <mxRectangle x="550" y="140" width="160" height="26" as="alternateBounds" />
          </mxGeometry>
        </mxCell>
        <mxCell id="013hZcBHefSOdsYqLP7i-199" value="menu_type" style="text;align=left;verticalAlign=top;spacingLeft=4;spacingRight=4;overflow=hidden;rotatable=0;points=[[0,0.5],[1,0.5]];portConstraint=eastwest;labelBackgroundColor=none;fontColor=#393C56;" vertex="1" parent="013hZcBHefSOdsYqLP7i-198">
          <mxGeometry y="26" width="160" height="26" as="geometry" />
        </mxCell>
        <mxCell id="013hZcBHefSOdsYqLP7i-200" value="FeedBackService" style="text;align=left;verticalAlign=top;spacingLeft=4;spacingRight=4;overflow=hidden;rotatable=0;points=[[0,0.5],[1,0.5]];portConstraint=eastwest;labelBackgroundColor=none;fontColor=#393C56;" vertex="1" parent="013hZcBHefSOdsYqLP7i-198">
          <mxGeometry y="52" width="160" height="26" as="geometry" />
        </mxCell>
        <mxCell id="013hZcBHefSOdsYqLP7i-201" value="SentimentAnaysis" style="text;align=left;verticalAlign=top;spacingLeft=4;spacingRight=4;overflow=hidden;rotatable=0;points=[[0,0.5],[1,0.5]];portConstraint=eastwest;labelBackgroundColor=none;fontColor=#393C56;" vertex="1" parent="013hZcBHefSOdsYqLP7i-198">
          <mxGeometry y="78" width="160" height="26" as="geometry" />
        </mxCell>
        <mxCell id="013hZcBHefSOdsYqLP7i-202" value="" style="line;html=1;strokeWidth=1;align=left;verticalAlign=middle;spacingTop=-1;spacingLeft=3;spacingRight=3;rotatable=0;labelPosition=right;points=[];portConstraint=eastwest;labelBackgroundColor=none;fillColor=#F2CC8F;strokeColor=#E07A5F;fontColor=#393C56;" vertex="1" parent="013hZcBHefSOdsYqLP7i-198">
          <mxGeometry y="104" width="160" height="8" as="geometry" />
        </mxCell>
        <mxCell id="013hZcBHefSOdsYqLP7i-203" value="AnanysisFeedBack(0" style="text;align=left;verticalAlign=top;spacingLeft=4;spacingRight=4;overflow=hidden;rotatable=0;points=[[0,0.5],[1,0.5]];portConstraint=eastwest;labelBackgroundColor=none;fontColor=#393C56;" vertex="1" parent="013hZcBHefSOdsYqLP7i-198">
          <mxGeometry y="112" width="160" height="26" as="geometry" />
        </mxCell>
        <mxCell id="013hZcBHefSOdsYqLP7i-204" value="getmenuList()" style="text;align=left;verticalAlign=top;spacingLeft=4;spacingRight=4;overflow=hidden;rotatable=0;points=[[0,0.5],[1,0.5]];portConstraint=eastwest;labelBackgroundColor=none;fontColor=#393C56;" vertex="1" parent="013hZcBHefSOdsYqLP7i-198">
          <mxGeometry y="138" width="160" height="26" as="geometry" />
        </mxCell>
        <mxCell id="013hZcBHefSOdsYqLP7i-207" value="NotificationService" style="swimlane;fontStyle=0;align=center;verticalAlign=top;childLayout=stackLayout;horizontal=1;startSize=26;horizontalStack=0;resizeParent=1;resizeLast=0;collapsible=1;marginBottom=0;rounded=0;shadow=0;strokeWidth=1;labelBackgroundColor=none;fillColor=#F2CC8F;strokeColor=#E07A5F;fontColor=#393C56;" vertex="1" parent="WIyWlLk6GJQsqaUBKTNV-1">
          <mxGeometry x="-57" y="710" width="157" height="150" as="geometry">
            <mxRectangle x="550" y="140" width="160" height="26" as="alternateBounds" />
          </mxGeometry>
        </mxCell>
        <mxCell id="013hZcBHefSOdsYqLP7i-208" value="NotificationDAO" style="text;align=left;verticalAlign=top;spacingLeft=4;spacingRight=4;overflow=hidden;rotatable=0;points=[[0,0.5],[1,0.5]];portConstraint=eastwest;labelBackgroundColor=none;fontColor=#393C56;" vertex="1" parent="013hZcBHefSOdsYqLP7i-207">
          <mxGeometry y="26" width="157" height="22" as="geometry" />
        </mxCell>
        <mxCell id="013hZcBHefSOdsYqLP7i-211" value="" style="line;html=1;strokeWidth=1;align=left;verticalAlign=middle;spacingTop=-1;spacingLeft=3;spacingRight=3;rotatable=0;labelPosition=right;points=[];portConstraint=eastwest;labelBackgroundColor=none;fillColor=#F2CC8F;strokeColor=#E07A5F;fontColor=#393C56;" vertex="1" parent="013hZcBHefSOdsYqLP7i-207">
          <mxGeometry y="48" width="157" height="8" as="geometry" />
        </mxCell>
        <mxCell id="013hZcBHefSOdsYqLP7i-212" value="getNotification()" style="text;align=left;verticalAlign=top;spacingLeft=4;spacingRight=4;overflow=hidden;rotatable=0;points=[[0,0.5],[1,0.5]];portConstraint=eastwest;labelBackgroundColor=none;fontColor=#393C56;" vertex="1" parent="013hZcBHefSOdsYqLP7i-207">
          <mxGeometry y="56" width="157" height="26" as="geometry" />
        </mxCell>
        <mxCell id="013hZcBHefSOdsYqLP7i-213" value="deleteNotification()" style="text;align=left;verticalAlign=top;spacingLeft=4;spacingRight=4;overflow=hidden;rotatable=0;points=[[0,0.5],[1,0.5]];portConstraint=eastwest;labelBackgroundColor=none;fontColor=#393C56;" vertex="1" parent="013hZcBHefSOdsYqLP7i-207">
          <mxGeometry y="82" width="157" height="26" as="geometry" />
        </mxCell>
        <mxCell id="013hZcBHefSOdsYqLP7i-214" value="getNotificationTillDate()" style="text;align=left;verticalAlign=top;spacingLeft=4;spacingRight=4;overflow=hidden;rotatable=0;points=[[0,0.5],[1,0.5]];portConstraint=eastwest;labelBackgroundColor=none;fontColor=#393C56;" vertex="1" parent="013hZcBHefSOdsYqLP7i-207">
          <mxGeometry y="108" width="157" height="26" as="geometry" />
        </mxCell>
        <mxCell id="013hZcBHefSOdsYqLP7i-215" value="FeedbackService" style="swimlane;fontStyle=0;align=center;verticalAlign=top;childLayout=stackLayout;horizontal=1;startSize=30;horizontalStack=0;resizeParent=1;resizeLast=0;collapsible=1;marginBottom=0;rounded=0;shadow=0;strokeWidth=1;labelBackgroundColor=none;fillColor=#F2CC8F;strokeColor=#E07A5F;fontColor=#393C56;" vertex="1" parent="WIyWlLk6GJQsqaUBKTNV-1">
          <mxGeometry x="190" y="710" width="150" height="140" as="geometry">
            <mxRectangle x="550" y="140" width="160" height="26" as="alternateBounds" />
          </mxGeometry>
        </mxCell>
        <mxCell id="013hZcBHefSOdsYqLP7i-216" value="FeedbackDAO" style="text;align=left;verticalAlign=top;spacingLeft=4;spacingRight=4;overflow=hidden;rotatable=0;points=[[0,0.5],[1,0.5]];portConstraint=eastwest;labelBackgroundColor=none;fontColor=#393C56;" vertex="1" parent="013hZcBHefSOdsYqLP7i-215">
          <mxGeometry y="30" width="150" height="22" as="geometry" />
        </mxCell>
        <mxCell id="013hZcBHefSOdsYqLP7i-219" value="" style="line;html=1;strokeWidth=1;align=left;verticalAlign=middle;spacingTop=-1;spacingLeft=3;spacingRight=3;rotatable=0;labelPosition=right;points=[];portConstraint=eastwest;labelBackgroundColor=none;fillColor=#F2CC8F;strokeColor=#E07A5F;fontColor=#393C56;" vertex="1" parent="013hZcBHefSOdsYqLP7i-215">
          <mxGeometry y="52" width="150" height="8" as="geometry" />
        </mxCell>
        <mxCell id="013hZcBHefSOdsYqLP7i-220" value="getFeedBackForMenuItem()" style="text;align=left;verticalAlign=top;spacingLeft=4;spacingRight=4;overflow=hidden;rotatable=0;points=[[0,0.5],[1,0.5]];portConstraint=eastwest;labelBackgroundColor=none;fontColor=#393C56;" vertex="1" parent="013hZcBHefSOdsYqLP7i-215">
          <mxGeometry y="60" width="150" height="30" as="geometry" />
        </mxCell>
        <mxCell id="013hZcBHefSOdsYqLP7i-221" value="getAllFeedback()" style="text;align=left;verticalAlign=top;spacingLeft=4;spacingRight=4;overflow=hidden;rotatable=0;points=[[0,0.5],[1,0.5]];portConstraint=eastwest;labelBackgroundColor=none;fontColor=#393C56;" vertex="1" parent="013hZcBHefSOdsYqLP7i-215">
          <mxGeometry y="90" width="150" height="26" as="geometry" />
        </mxCell>
        <mxCell id="013hZcBHefSOdsYqLP7i-227" style="edgeStyle=orthogonalEdgeStyle;rounded=0;orthogonalLoop=1;jettySize=auto;html=1;exitX=0;exitY=0.5;exitDx=0;exitDy=0;strokeColor=#E07A5F;fontColor=#393C56;fillColor=#F2CC8F;" edge="1" parent="WIyWlLk6GJQsqaUBKTNV-1">
          <mxGeometry relative="1" as="geometry">
            <mxPoint x="489.99" y="677.5" as="sourcePoint" />
            <mxPoint x="-240" y="650" as="targetPoint" />
          </mxGeometry>
        </mxCell>
        <mxCell id="013hZcBHefSOdsYqLP7i-229" value="DataBaseConnection" style="swimlane;fontStyle=0;align=center;verticalAlign=top;childLayout=stackLayout;horizontal=1;startSize=26;horizontalStack=0;resizeParent=1;resizeLast=0;collapsible=1;marginBottom=0;rounded=0;shadow=0;strokeWidth=1;labelBackgroundColor=none;fillColor=#F2CC8F;strokeColor=#E07A5F;fontColor=#393C56;" vertex="1" parent="WIyWlLk6GJQsqaUBKTNV-1">
          <mxGeometry x="560" y="950" width="153" height="190" as="geometry">
            <mxRectangle x="550" y="140" width="160" height="26" as="alternateBounds" />
          </mxGeometry>
        </mxCell>
        <mxCell id="013hZcBHefSOdsYqLP7i-230" value="connection" style="text;align=left;verticalAlign=top;spacingLeft=4;spacingRight=4;overflow=hidden;rotatable=0;points=[[0,0.5],[1,0.5]];portConstraint=eastwest;labelBackgroundColor=none;fontColor=#393C56;" vertex="1" parent="013hZcBHefSOdsYqLP7i-229">
          <mxGeometry y="26" width="153" height="26" as="geometry" />
        </mxCell>
        <mxCell id="013hZcBHefSOdsYqLP7i-235" value="instance" style="text;align=left;verticalAlign=top;spacingLeft=4;spacingRight=4;overflow=hidden;rotatable=0;points=[[0,0.5],[1,0.5]];portConstraint=eastwest;labelBackgroundColor=none;fontColor=#393C56;" vertex="1" parent="013hZcBHefSOdsYqLP7i-229">
          <mxGeometry y="52" width="153" height="26" as="geometry" />
        </mxCell>
        <mxCell id="013hZcBHefSOdsYqLP7i-231" value="" style="line;html=1;strokeWidth=1;align=left;verticalAlign=middle;spacingTop=-1;spacingLeft=3;spacingRight=3;rotatable=0;labelPosition=right;points=[];portConstraint=eastwest;labelBackgroundColor=none;fillColor=#F2CC8F;strokeColor=#E07A5F;fontColor=#393C56;" vertex="1" parent="013hZcBHefSOdsYqLP7i-229">
          <mxGeometry y="78" width="153" height="8" as="geometry" />
        </mxCell>
        <mxCell id="013hZcBHefSOdsYqLP7i-232" value="initdbConnection()" style="text;align=left;verticalAlign=top;spacingLeft=4;spacingRight=4;overflow=hidden;rotatable=0;points=[[0,0.5],[1,0.5]];portConstraint=eastwest;labelBackgroundColor=none;fontColor=#393C56;" vertex="1" parent="013hZcBHefSOdsYqLP7i-229">
          <mxGeometry y="86" width="153" height="26" as="geometry" />
        </mxCell>
        <mxCell id="013hZcBHefSOdsYqLP7i-233" value="getConnection()" style="text;align=left;verticalAlign=top;spacingLeft=4;spacingRight=4;overflow=hidden;rotatable=0;points=[[0,0.5],[1,0.5]];portConstraint=eastwest;labelBackgroundColor=none;fontColor=#393C56;" vertex="1" parent="013hZcBHefSOdsYqLP7i-229">
          <mxGeometry y="112" width="153" height="26" as="geometry" />
        </mxCell>
        <mxCell id="013hZcBHefSOdsYqLP7i-234" value="getInstance()" style="text;align=left;verticalAlign=top;spacingLeft=4;spacingRight=4;overflow=hidden;rotatable=0;points=[[0,0.5],[1,0.5]];portConstraint=eastwest;labelBackgroundColor=none;fontColor=#393C56;" vertex="1" parent="013hZcBHefSOdsYqLP7i-229">
          <mxGeometry y="138" width="153" height="26" as="geometry" />
        </mxCell>
        <mxCell id="013hZcBHefSOdsYqLP7i-251" style="edgeStyle=orthogonalEdgeStyle;rounded=0;orthogonalLoop=1;jettySize=auto;html=1;exitX=0;exitY=0.5;exitDx=0;exitDy=0;entryX=1;entryY=0.5;entryDx=0;entryDy=0;strokeColor=#E07A5F;fontColor=#393C56;fillColor=#F2CC8F;" edge="1" parent="WIyWlLk6GJQsqaUBKTNV-1" source="013hZcBHefSOdsYqLP7i-7" target="013hZcBHefSOdsYqLP7i-15">
          <mxGeometry relative="1" as="geometry">
            <Array as="points">
              <mxPoint x="490" y="149" />
              <mxPoint x="490" y="158" />
            </Array>
          </mxGeometry>
        </mxCell>
        <mxCell id="013hZcBHefSOdsYqLP7i-252" style="edgeStyle=orthogonalEdgeStyle;rounded=0;orthogonalLoop=1;jettySize=auto;html=1;exitX=0;exitY=0.5;exitDx=0;exitDy=0;entryX=1;entryY=0.5;entryDx=0;entryDy=0;strokeColor=#E07A5F;fontColor=#393C56;fillColor=#F2CC8F;" edge="1" parent="WIyWlLk6GJQsqaUBKTNV-1" source="013hZcBHefSOdsYqLP7i-18" target="013hZcBHefSOdsYqLP7i-16">
          <mxGeometry relative="1" as="geometry" />
        </mxCell>
      </root>
    </mxGraphModel>
  </diagram>
</mxfile>
